<!--
SPDX-FileCopyrightText: 2026 PythonWoods <dev@pythonwoods.dev>
SPDX-License-Identifier: Apache-2.0
-->
<svg class="rich-terminal" viewBox="0 0 994 1115.0" xmlns="http://www.w3.org/2000/svg">
    <!-- Generated with Rich https://www.textualize.io -->
    <style>

    @font-face {
        font-family: "Fira Code";
        src: local("FiraCode-Regular"),
                url("https://cdnjs.cloudflare.com/ajax/libs/firacode/6.2.0/woff2/FiraCode-Regular.woff2") format("woff2"),
                url("https://cdnjs.cloudflare.com/ajax/libs/firacode/6.2.0/woff/FiraCode-Regular.woff") format("woff");
        font-style: normal;
        font-weight: 400;
    }
    @font-face {
        font-family: "Fira Code";
        src: local("FiraCode-Bold"),
                url("https://cdnjs.cloudflare.com/ajax/libs/firacode/6.2.0/woff2/FiraCode-Bold.woff2") format("woff2"),
                url("https://cdnjs.cloudflare.com/ajax/libs/firacode/6.2.0/woff/FiraCode-Bold.woff") format("woff");
        font-style: bold;
        font-weight: 700;
    }

    .terminal-101169602-matrix {
        font-family: Fira Code, monospace;
        font-size: 20px;
        line-height: 24.4px;
        font-variant-east-asian: full-width;
    }

    .terminal-101169602-title {
        font-size: 18px;
        font-weight: bold;
        font-family: arial;
    }

    .terminal-101169602-r1 { fill: #e2e8f0;font-weight: bold }
.terminal-101169602-r2 { fill: #e2e8f0 }
.terminal-101169602-r3 { fill: #8c9299 }
.terminal-101169602-r4 { fill: #e6edf3 }
.terminal-101169602-r5 { fill: #6e7681 }
.terminal-101169602-r6 { fill: #7ee787 }
.terminal-101169602-r7 { fill: #a5d6ff }
.terminal-101169602-r8 { fill: #4f46e5 }
.terminal-101169602-r9 { fill: #10b981 }
    </style>

    <rect width="100%" height="100%" fill="#0d1117"/>
    <defs>
    <clipPath id="terminal-101169602-clip-terminal">
      <rect x="0" y="0" width="975.0" height="1097.0" />
    </clipPath>
    <clipPath id="terminal-101169602-line-0">
    <rect x="0" y="1.5" width="976" height="24.65"/>
            </clipPath>
<clipPath id="terminal-101169602-line-1">
    <rect x="0" y="25.9" width="976" height="24.65"/>
            </clipPath>
<clipPath id="terminal-101169602-line-2">
    <rect x="0" y="50.3" width="976" height="24.65"/>
            </clipPath>
<clipPath id="terminal-101169602-line-3">
    <rect x="0" y="74.7" width="976" height="24.65"/>
            </clipPath>
<clipPath id="terminal-101169602-line-4">
    <rect x="0" y="99.1" width="976" height="24.65"/>
            </clipPath>
<clipPath id="terminal-101169602-line-5">
    <rect x="0" y="123.5" width="976" height="24.65"/>
            </clipPath>
<clipPath id="terminal-101169602-line-6">
    <rect x="0" y="147.9" width="976" height="24.65"/>
            </clipPath>
<clipPath id="terminal-101169602-line-7">
    <rect x="0" y="172.3" width="976" height="24.65"/>
            </clipPath>
<clipPath id="terminal-101169602-line-8">
    <rect x="0" y="196.7" width="976" height="24.65"/>
            </clipPath>
<clipPath id="terminal-101169602-line-9">
    <rect x="0" y="221.1" width="976" height="24.65"/>
            </clipPath>
<clipPath id="terminal-101169602-line-10">
    <rect x="0" y="245.5" width="976" height="24.65"/>
            </clipPath>
<clipPath id="terminal-101169602-line-11">
    <rect x="0" y="269.9" width="976" height="24.65"/>
            </clipPath>
<clipPath id="terminal-101169602-line-12">
    <rect x="0" y="294.3" width="976" height="24.65"/>
            </clipPath>
<clipPath id="terminal-101169602-line-13">
    <rect x="0" y="318.7" width="976" height="24.65"/>
            </clipPath>
<clipPath id="terminal-101169602-line-14">
    <rect x="0" y="343.1" width="976" height="24.65"/>
            </clipPath>
<clipPath id="terminal-101169602-line-15">
    <rect x="0" y="367.5" width="976" height="24.65"/>
            </clipPath>
<clipPath id="terminal-101169602-line-16">
    <rect x="0" y="391.9" width="976" height="24.65"/>
            </clipPath>
<clipPath id="terminal-101169602-line-17">
    <rect x="0" y="416.3" width="976" height="24.65"/>
            </clipPath>
<clipPath id="terminal-101169602-line-18">
    <rect x="0" y="440.7" width="976" height="24.65"/>
            </clipPath>
<clipPath id="terminal-101169602-line-19">
    <rect x="0" y="465.1" width="976" height="24.65"/>
            </clipPath>
<clipPath id="terminal-101169602-line-20">
    <rect x="0" y="489.5" width="976" height="24.65"/>
            </clipPath>
<clipPath id="terminal-101169602-line-21">
    <rect x="0" y="513.9" width="976" height="24.65"/>
            </clipPath>
<clipPath id="terminal-101169602-line-22">
    <rect x="0" y="538.3" width="976" height="24.65"/>
            </clipPath>
<clipPath id="terminal-101169602-line-23">
    <rect x="0" y="562.7" width="976" height="24.65"/>
            </clipPath>
<clipPath id="terminal-101169602-line-24">
    <rect x="0" y="587.1" width="976" height="24.65"/>
            </clipPath>
<clipPath id="terminal-101169602-line-25">
    <rect x="0" y="611.5" width="976" height="24.65"/>
            </clipPath>
<clipPath id="terminal-101169602-line-26">
    <rect x="0" y="635.9" width="976" height="24.65"/>
            </clipPath>
<clipPath id="terminal-101169602-line-27">
    <rect x="0" y="660.3" width="976" height="24.65"/>
            </clipPath>
<clipPath id="terminal-101169602-line-28">
    <rect x="0" y="684.7" width="976" height="24.65"/>
            </clipPath>
<clipPath id="terminal-101169602-line-29">
    <rect x="0" y="709.1" width="976" height="24.65"/>
            </clipPath>
<clipPath id="terminal-101169602-line-30">
    <rect x="0" y="733.5" width="976" height="24.65"/>
            </clipPath>
<clipPath id="terminal-101169602-line-31">
    <rect x="0" y="757.9" width="976" height="24.65"/>
            </clipPath>
<clipPath id="terminal-101169602-line-32">
    <rect x="0" y="782.3" width="976" height="24.65"/>
            </clipPath>
<clipPath id="terminal-101169602-line-33">
    <rect x="0" y="806.7" width="976" height="24.65"/>
            </clipPath>
<clipPath id="terminal-101169602-line-34">
    <rect x="0" y="831.1" width="976" height="24.65"/>
            </clipPath>
<clipPath id="terminal-101169602-line-35">
    <rect x="0" y="855.5" width="976" height="24.65"/>
            </clipPath>
<clipPath id="terminal-101169602-line-36">
    <rect x="0" y="879.9" width="976" height="24.65"/>
            </clipPath>
<clipPath id="terminal-101169602-line-37">
    <rect x="0" y="904.3" width="976" height="24.65"/>
            </clipPath>
<clipPath id="terminal-101169602-line-38">
    <rect x="0" y="928.7" width="976" height="24.65"/>
            </clipPath>
<clipPath id="terminal-101169602-line-39">
    <rect x="0" y="953.1" width="976" height="24.65"/>
            </clipPath>
<clipPath id="terminal-101169602-line-40">
    <rect x="0" y="977.5" width="976" height="24.65"/>
            </clipPath>
<clipPath id="terminal-101169602-line-41">
    <rect x="0" y="1001.9" width="976" height="24.65"/>
            </clipPath>
<clipPath id="terminal-101169602-line-42">
    <rect x="0" y="1026.3" width="976" height="24.65"/>
            </clipPath>
<clipPath id="terminal-101169602-line-43">
    <rect x="0" y="1050.7" width="976" height="24.65"/>
            </clipPath>
    </defs>

    <g transform="translate(9, 8)" clip-path="url(#terminal-101169602-clip-terminal)">
    <rect fill="#0d1117" x="0" y="221.1" width="12.2" height="24.65" shape-rendering="crispEdges"/><rect fill="#0d1117" x="12.2" y="221.1" width="963.8" height="24.65" shape-rendering="crispEdges"/><rect fill="#0d1117" x="0" y="245.5" width="24.4" height="24.65" shape-rendering="crispEdges"/><rect fill="#0d1117" x="24.4" y="245.5" width="109.8" height="24.65" shape-rendering="crispEdges"/><rect fill="#0d1117" x="134.2" y="245.5" width="12.2" height="24.65" shape-rendering="crispEdges"/><rect fill="#0d1117" x="146.4" y="245.5" width="12.2" height="24.65" shape-rendering="crispEdges"/><rect fill="#0d1117" x="158.6" y="245.5" width="573.4" height="24.65" shape-rendering="crispEdges"/><rect fill="#0d1117" x="732" y="245.5" width="12.2" height="24.65" shape-rendering="crispEdges"/><rect fill="#0d1117" x="744.2" y="245.5" width="231.8" height="24.65" shape-rendering="crispEdges"/><rect fill="#0d1117" x="0" y="269.9" width="24.4" height="24.65" shape-rendering="crispEdges"/><rect fill="#0d1117" x="24.4" y="269.9" width="109.8" height="24.65" shape-rendering="crispEdges"/><rect fill="#0d1117" x="134.2" y="269.9" width="12.2" height="24.65" shape-rendering="crispEdges"/><rect fill="#0d1117" x="146.4" y="269.9" width="12.2" height="24.65" shape-rendering="crispEdges"/><rect fill="#0d1117" x="158.6" y="269.9" width="85.4" height="24.65" shape-rendering="crispEdges"/><rect fill="#0d1117" x="244" y="269.9" width="12.2" height="24.65" shape-rendering="crispEdges"/><rect fill="#0d1117" x="256.2" y="269.9" width="719.8" height="24.65" shape-rendering="crispEdges"/><rect fill="#0d1117" x="0" y="294.3" width="24.4" height="24.65" shape-rendering="crispEdges"/><rect fill="#0d1117" x="24.4" y="294.3" width="73.2" height="24.65" shape-rendering="crispEdges"/><rect fill="#0d1117" x="97.6" y="294.3" width="12.2" height="24.65" shape-rendering="crispEdges"/><rect fill="#0d1117" x="109.8" y="294.3" width="12.2" height="24.65" shape-rendering="crispEdges"/><rect fill="#0d1117" x="122" y="294.3" width="12.2" height="24.65" shape-rendering="crispEdges"/><rect fill="#0d1117" x="134.2" y="294.3" width="841.8" height="24.65" shape-rendering="crispEdges"/><rect fill="#0d1117" x="0" y="318.7" width="48.8" height="24.65" shape-rendering="crispEdges"/><rect fill="#0d1117" x="48.8" y="318.7" width="12.2" height="24.65" shape-rendering="crispEdges"/><rect fill="#0d1117" x="61" y="318.7" width="915" height="24.65" shape-rendering="crispEdges"/><rect fill="#0d1117" x="0" y="343.1" width="73.2" height="24.65" shape-rendering="crispEdges"/><rect fill="#0d1117" x="73.2" y="343.1" width="73.2" height="24.65" shape-rendering="crispEdges"/><rect fill="#0d1117" x="146.4" y="343.1" width="12.2" height="24.65" shape-rendering="crispEdges"/><rect fill="#0d1117" x="158.6" y="343.1" width="12.2" height="24.65" shape-rendering="crispEdges"/><rect fill="#0d1117" x="170.8" y="343.1" width="12.2" height="24.65" shape-rendering="crispEdges"/><rect fill="#0d1117" x="183" y="343.1" width="793" height="24.65" shape-rendering="crispEdges"/><rect fill="#0d1117" x="0" y="367.5" width="97.6" height="24.65" shape-rendering="crispEdges"/><rect fill="#0d1117" x="97.6" y="367.5" width="97.6" height="24.65" shape-rendering="crispEdges"/><rect fill="#0d1117" x="195.2" y="367.5" width="12.2" height="24.65" shape-rendering="crispEdges"/><rect fill="#0d1117" x="207.4" y="367.5" width="12.2" height="24.65" shape-rendering="crispEdges"/><rect fill="#0d1117" x="219.6" y="367.5" width="12.2" height="24.65" shape-rendering="crispEdges"/><rect fill="#0d1117" x="231.8" y="367.5" width="744.2" height="24.65" shape-rendering="crispEdges"/><rect fill="#0d1117" x="0" y="391.9" width="122" height="24.65" shape-rendering="crispEdges"/><rect fill="#0d1117" x="122" y="391.9" width="73.2" height="24.65" shape-rendering="crispEdges"/><rect fill="#0d1117" x="195.2" y="391.9" width="12.2" height="24.65" shape-rendering="crispEdges"/><rect fill="#0d1117" x="207.4" y="391.9" width="12.2" height="24.65" shape-rendering="crispEdges"/><rect fill="#0d1117" x="219.6" y="391.9" width="97.6" height="24.65" shape-rendering="crispEdges"/><rect fill="#0d1117" x="317.2" y="391.9" width="12.2" height="24.65" shape-rendering="crispEdges"/><rect fill="#0d1117" x="329.4" y="391.9" width="646.6" height="24.65" shape-rendering="crispEdges"/><rect fill="#0d1117" x="0" y="416.3" width="122" height="24.65" shape-rendering="crispEdges"/><rect fill="#0d1117" x="122" y="416.3" width="109.8" height="24.65" shape-rendering="crispEdges"/><rect fill="#0d1117" x="231.8" y="416.3" width="12.2" height="24.65" shape-rendering="crispEdges"/><rect fill="#0d1117" x="244" y="416.3" width="12.2" height="24.65" shape-rendering="crispEdges"/><rect fill="#0d1117" x="256.2" y="416.3" width="85.4" height="24.65" shape-rendering="crispEdges"/><rect fill="#0d1117" x="341.6" y="416.3" width="634.4" height="24.65" shape-rendering="crispEdges"/><rect fill="#0d1117" x="0" y="440.7" width="97.6" height="24.65" shape-rendering="crispEdges"/><rect fill="#0d1117" x="97.6" y="440.7" width="12.2" height="24.65" shape-rendering="crispEdges"/><rect fill="#0d1117" x="109.8" y="440.7" width="866.2" height="24.65" shape-rendering="crispEdges"/><rect fill="#0d1117" x="0" y="465.1" width="73.2" height="24.65" shape-rendering="crispEdges"/><rect fill="#0d1117" x="73.2" y="465.1" width="24.4" height="24.65" shape-rendering="crispEdges"/><rect fill="#0d1117" x="97.6" y="465.1" width="878.4" height="24.65" shape-rendering="crispEdges"/><rect fill="#0d1117" x="0" y="489.5" width="73.2" height="24.65" shape-rendering="crispEdges"/><rect fill="#0d1117" x="73.2" y="489.5" width="109.8" height="24.65" shape-rendering="crispEdges"/><rect fill="#0d1117" x="183" y="489.5" width="12.2" height="24.65" shape-rendering="crispEdges"/><rect fill="#0d1117" x="195.2" y="489.5" width="12.2" height="24.65" shape-rendering="crispEdges"/><rect fill="#0d1117" x="207.4" y="489.5" width="12.2" height="24.65" shape-rendering="crispEdges"/><rect fill="#0d1117" x="219.6" y="489.5" width="756.4" height="24.65" shape-rendering="crispEdges"/><rect fill="#0d1117" x="0" y="513.9" width="97.6" height="24.65" shape-rendering="crispEdges"/><rect fill="#0d1117" x="97.6" y="513.9" width="12.2" height="24.65" shape-rendering="crispEdges"/><rect fill="#0d1117" x="109.8" y="513.9" width="866.2" height="24.65" shape-rendering="crispEdges"/><rect fill="#0d1117" x="0" y="538.3" width="122" height="24.65" shape-rendering="crispEdges"/><rect fill="#0d1117" x="122" y="538.3" width="97.6" height="24.65" shape-rendering="crispEdges"/><rect fill="#0d1117" x="219.6" y="538.3" width="12.2" height="24.65" shape-rendering="crispEdges"/><rect fill="#0d1117" x="231.8" y="538.3" width="12.2" height="24.65" shape-rendering="crispEdges"/><rect fill="#0d1117" x="244" y="538.3" width="73.2" height="24.65" shape-rendering="crispEdges"/><rect fill="#0d1117" x="317.2" y="538.3" width="12.2" height="24.65" shape-rendering="crispEdges"/><rect fill="#0d1117" x="329.4" y="538.3" width="646.6" height="24.65" shape-rendering="crispEdges"/><rect fill="#0d1117" x="0" y="562.7" width="122" height="24.65" shape-rendering="crispEdges"/><rect fill="#0d1117" x="122" y="562.7" width="85.4" height="24.65" shape-rendering="crispEdges"/><rect fill="#0d1117" x="207.4" y="562.7" width="12.2" height="24.65" shape-rendering="crispEdges"/><rect fill="#0d1117" x="219.6" y="562.7" width="12.2" height="24.65" shape-rendering="crispEdges"/><rect fill="#0d1117" x="231.8" y="562.7" width="85.4" height="24.65" shape-rendering="crispEdges"/><rect fill="#0d1117" x="317.2" y="562.7" width="12.2" height="24.65" shape-rendering="crispEdges"/><rect fill="#0d1117" x="329.4" y="562.7" width="646.6" height="24.65" shape-rendering="crispEdges"/><rect fill="#0d1117" x="0" y="587.1" width="122" height="24.65" shape-rendering="crispEdges"/><rect fill="#0d1117" x="122" y="587.1" width="109.8" height="24.65" shape-rendering="crispEdges"/><rect fill="#0d1117" x="231.8" y="587.1" width="12.2" height="24.65" shape-rendering="crispEdges"/><rect fill="#0d1117" x="244" y="587.1" width="12.2" height="24.65" shape-rendering="crispEdges"/><rect fill="#0d1117" x="256.2" y="587.1" width="12.2" height="24.65" shape-rendering="crispEdges"/><rect fill="#0d1117" x="268.4" y="587.1" width="707.6" height="24.65" shape-rendering="crispEdges"/><rect fill="#0d1117" x="0" y="611.5" width="146.4" height="24.65" shape-rendering="crispEdges"/><rect fill="#0d1117" x="146.4" y="611.5" width="73.2" height="24.65" shape-rendering="crispEdges"/><rect fill="#0d1117" x="219.6" y="611.5" width="12.2" height="24.65" shape-rendering="crispEdges"/><rect fill="#0d1117" x="231.8" y="611.5" width="12.2" height="24.65" shape-rendering="crispEdges"/><rect fill="#0d1117" x="244" y="611.5" width="683.2" height="24.65" shape-rendering="crispEdges"/><rect fill="#0d1117" x="927.2" y="611.5" width="48.8" height="24.65" shape-rendering="crispEdges"/><rect fill="#0d1117" x="0" y="635.9" width="122" height="24.65" shape-rendering="crispEdges"/><rect fill="#0d1117" x="122" y="635.9" width="24.4" height="24.65" shape-rendering="crispEdges"/><rect fill="#0d1117" x="146.4" y="635.9" width="829.6" height="24.65" shape-rendering="crispEdges"/><rect fill="#0d1117" x="0" y="660.3" width="122" height="24.65" shape-rendering="crispEdges"/><rect fill="#0d1117" x="122" y="660.3" width="134.2" height="24.65" shape-rendering="crispEdges"/><rect fill="#0d1117" x="256.2" y="660.3" width="12.2" height="24.65" shape-rendering="crispEdges"/><rect fill="#0d1117" x="268.4" y="660.3" width="12.2" height="24.65" shape-rendering="crispEdges"/><rect fill="#0d1117" x="280.6" y="660.3" width="12.2" height="24.65" shape-rendering="crispEdges"/><rect fill="#0d1117" x="292.8" y="660.3" width="683.2" height="24.65" shape-rendering="crispEdges"/><rect fill="#0d1117" x="0" y="684.7" width="146.4" height="24.65" shape-rendering="crispEdges"/><rect fill="#0d1117" x="146.4" y="684.7" width="12.2" height="24.65" shape-rendering="crispEdges"/><rect fill="#0d1117" x="158.6" y="684.7" width="817.4" height="24.65" shape-rendering="crispEdges"/><rect fill="#0d1117" x="0" y="709.1" width="170.8" height="24.65" shape-rendering="crispEdges"/><rect fill="#0d1117" x="170.8" y="709.1" width="219.6" height="24.65" shape-rendering="crispEdges"/><rect fill="#0d1117" x="390.4" y="709.1" width="12.2" height="24.65" shape-rendering="crispEdges"/><rect fill="#0d1117" x="402.6" y="709.1" width="12.2" height="24.65" shape-rendering="crispEdges"/><rect fill="#0d1117" x="414.8" y="709.1" width="12.2" height="24.65" shape-rendering="crispEdges"/><rect fill="#0d1117" x="427" y="709.1" width="549" height="24.65" shape-rendering="crispEdges"/><rect fill="#0d1117" x="0" y="733.5" width="195.2" height="24.65" shape-rendering="crispEdges"/><rect fill="#0d1117" x="195.2" y="733.5" width="219.6" height="24.65" shape-rendering="crispEdges"/><rect fill="#0d1117" x="414.8" y="733.5" width="12.2" height="24.65" shape-rendering="crispEdges"/><rect fill="#0d1117" x="427" y="733.5" width="12.2" height="24.65" shape-rendering="crispEdges"/><rect fill="#0d1117" x="439.2" y="733.5" width="12.2" height="24.65" shape-rendering="crispEdges"/><rect fill="#0d1117" x="451.4" y="733.5" width="12.2" height="24.65" shape-rendering="crispEdges"/><rect fill="#0d1117" x="463.6" y="733.5" width="61" height="24.65" shape-rendering="crispEdges"/><rect fill="#0d1117" x="524.6" y="733.5" width="12.2" height="24.65" shape-rendering="crispEdges"/><rect fill="#0d1117" x="536.8" y="733.5" width="12.2" height="24.65" shape-rendering="crispEdges"/><rect fill="#0d1117" x="549" y="733.5" width="183" height="24.65" shape-rendering="crispEdges"/><rect fill="#0d1117" x="732" y="733.5" width="12.2" height="24.65" shape-rendering="crispEdges"/><rect fill="#0d1117" x="744.2" y="733.5" width="24.4" height="24.65" shape-rendering="crispEdges"/><rect fill="#0d1117" x="768.6" y="733.5" width="207.4" height="24.65" shape-rendering="crispEdges"/><rect fill="#0d1117" x="0" y="757.9" width="195.2" height="24.65" shape-rendering="crispEdges"/><rect fill="#0d1117" x="195.2" y="757.9" width="97.6" height="24.65" shape-rendering="crispEdges"/><rect fill="#0d1117" x="292.8" y="757.9" width="12.2" height="24.65" shape-rendering="crispEdges"/><rect fill="#0d1117" x="305" y="757.9" width="12.2" height="24.65" shape-rendering="crispEdges"/><rect fill="#0d1117" x="317.2" y="757.9" width="12.2" height="24.65" shape-rendering="crispEdges"/><rect fill="#0d1117" x="329.4" y="757.9" width="12.2" height="24.65" shape-rendering="crispEdges"/><rect fill="#0d1117" x="341.6" y="757.9" width="134.2" height="24.65" shape-rendering="crispEdges"/><rect fill="#0d1117" x="475.8" y="757.9" width="12.2" height="24.65" shape-rendering="crispEdges"/><rect fill="#0d1117" x="488" y="757.9" width="12.2" height="24.65" shape-rendering="crispEdges"/><rect fill="#0d1117" x="500.2" y="757.9" width="24.4" height="24.65" shape-rendering="crispEdges"/><rect fill="#0d1117" x="524.6" y="757.9" width="12.2" height="24.65" shape-rendering="crispEdges"/><rect fill="#0d1117" x="536.8" y="757.9" width="12.2" height="24.65" shape-rendering="crispEdges"/><rect fill="#0d1117" x="549" y="757.9" width="427" height="24.65" shape-rendering="crispEdges"/><rect fill="#0d1117" x="0" y="782.3" width="170.8" height="24.65" shape-rendering="crispEdges"/><rect fill="#0d1117" x="170.8" y="782.3" width="12.2" height="24.65" shape-rendering="crispEdges"/><rect fill="#0d1117" x="183" y="782.3" width="793" height="24.65" shape-rendering="crispEdges"/><rect fill="#0d1117" x="0" y="806.7" width="146.4" height="24.65" shape-rendering="crispEdges"/><rect fill="#0d1117" x="146.4" y="806.7" width="12.2" height="24.65" shape-rendering="crispEdges"/><rect fill="#0d1117" x="158.6" y="806.7" width="817.4" height="24.65" shape-rendering="crispEdges"/><rect fill="#0d1117" x="0" y="831.1" width="122" height="24.65" shape-rendering="crispEdges"/><rect fill="#0d1117" x="122" y="831.1" width="12.2" height="24.65" shape-rendering="crispEdges"/><rect fill="#0d1117" x="134.2" y="831.1" width="841.8" height="24.65" shape-rendering="crispEdges"/><rect fill="#0d1117" x="0" y="855.5" width="97.6" height="24.65" shape-rendering="crispEdges"/><rect fill="#0d1117" x="97.6" y="855.5" width="12.2" height="24.65" shape-rendering="crispEdges"/><rect fill="#0d1117" x="109.8" y="855.5" width="866.2" height="24.65" shape-rendering="crispEdges"/><rect fill="#0d1117" x="0" y="879.9" width="73.2" height="24.65" shape-rendering="crispEdges"/><rect fill="#0d1117" x="73.2" y="879.9" width="12.2" height="24.65" shape-rendering="crispEdges"/><rect fill="#0d1117" x="85.4" y="879.9" width="890.6" height="24.65" shape-rendering="crispEdges"/><rect fill="#0d1117" x="0" y="904.3" width="48.8" height="24.65" shape-rendering="crispEdges"/><rect fill="#0d1117" x="48.8" y="904.3" width="12.2" height="24.65" shape-rendering="crispEdges"/><rect fill="#0d1117" x="61" y="904.3" width="915" height="24.65" shape-rendering="crispEdges"/><rect fill="#0d1117" x="0" y="928.7" width="24.4" height="24.65" shape-rendering="crispEdges"/><rect fill="#0d1117" x="24.4" y="928.7" width="12.2" height="24.65" shape-rendering="crispEdges"/><rect fill="#0d1117" x="36.6" y="928.7" width="939.4" height="24.65" shape-rendering="crispEdges"/><rect fill="#0d1117" x="0" y="953.1" width="12.2" height="24.65" shape-rendering="crispEdges"/><rect fill="#0d1117" x="12.2" y="953.1" width="963.8" height="24.65" shape-rendering="crispEdges"/>
    <g class="terminal-101169602-matrix">
    <text class="terminal-101169602-r1" x="0" y="20" textLength="390.4" clip-path="url(#terminal-101169602-line-0)">Run&#160;PythonWoods/zenzic-action@v2</text><text class="terminal-101169602-r2" x="976" y="20" textLength="12.2" clip-path="url(#terminal-101169602-line-0)">
</text><text class="terminal-101169602-r3" x="0" y="44.4" textLength="85.4" clip-path="url(#terminal-101169602-line-1)">&#160;&#160;with:</text><text class="terminal-101169602-r2" x="976" y="44.4" textLength="12.2" clip-path="url(#terminal-101169602-line-1)">
</text><text class="terminal-101169602-r3" x="0" y="68.8" textLength="219.6" clip-path="url(#terminal-101169602-line-2)">&#160;&#160;&#160;&#160;version:&#160;x.y.z</text><text class="terminal-101169602-r2" x="976" y="68.8" textLength="12.2" clip-path="url(#terminal-101169602-line-2)">
</text><text class="terminal-101169602-r3" x="0" y="93.2" textLength="207.4" clip-path="url(#terminal-101169602-line-3)">&#160;&#160;&#160;&#160;format:&#160;sarif</text><text class="terminal-101169602-r2" x="976" y="93.2" textLength="12.2" clip-path="url(#terminal-101169602-line-3)">
</text><text class="terminal-101169602-r3" x="0" y="117.6" textLength="268.4" clip-path="url(#terminal-101169602-line-4)">&#160;&#160;&#160;&#160;upload-sarif:&#160;true</text><text class="terminal-101169602-r2" x="976" y="117.6" textLength="12.2" clip-path="url(#terminal-101169602-line-4)">
</text><text class="terminal-101169602-r2" x="976" y="142" textLength="12.2" clip-path="url(#terminal-101169602-line-5)">
</text><text class="terminal-101169602-r3" x="0" y="166.4" textLength="122" clip-path="url(#terminal-101169602-line-6)">Executing:</text><text class="terminal-101169602-r2" x="122" y="166.4" textLength="500.2" clip-path="url(#terminal-101169602-line-6)">&#160;uvx&#160;zenzic&#160;check&#160;all&#160;--format&#160;sarif&#160;--ci</text><text class="terminal-101169602-r2" x="976" y="166.4" textLength="12.2" clip-path="url(#terminal-101169602-line-6)">
</text><text class="terminal-101169602-r3" x="0" y="190.8" textLength="122" clip-path="url(#terminal-101169602-line-7)">Saving&#160;to:</text><text class="terminal-101169602-r2" x="122" y="190.8" textLength="256.2" clip-path="url(#terminal-101169602-line-7)">&#160;zenzic-results.sarif</text><text class="terminal-101169602-r2" x="976" y="190.8" textLength="12.2" clip-path="url(#terminal-101169602-line-7)">
</text><text class="terminal-101169602-r2" x="976" y="215.2" textLength="12.2" clip-path="url(#terminal-101169602-line-8)">
</text><text class="terminal-101169602-r4" x="0" y="239.6" textLength="12.2" clip-path="url(#terminal-101169602-line-9)">{</text><text class="terminal-101169602-r2" x="976" y="239.6" textLength="12.2" clip-path="url(#terminal-101169602-line-9)">
</text><text class="terminal-101169602-r6" x="24.4" y="264" textLength="109.8" clip-path="url(#terminal-101169602-line-10)">&quot;$schema&quot;</text><text class="terminal-101169602-r4" x="134.2" y="264" textLength="12.2" clip-path="url(#terminal-101169602-line-10)">:</text><text class="terminal-101169602-r7" x="158.6" y="264" textLength="573.4" clip-path="url(#terminal-101169602-line-10)">&quot;https://json.schemastore.org/sarif-2.1.0.json&quot;</text><text class="terminal-101169602-r4" x="732" y="264" textLength="12.2" clip-path="url(#terminal-101169602-line-10)">,</text><text class="terminal-101169602-r2" x="976" y="264" textLength="12.2" clip-path="url(#terminal-101169602-line-10)">
</text><text class="terminal-101169602-r6" x="24.4" y="288.4" textLength="109.8" clip-path="url(#terminal-101169602-line-11)">&quot;version&quot;</text><text class="terminal-101169602-r4" x="134.2" y="288.4" textLength="12.2" clip-path="url(#terminal-101169602-line-11)">:</text><text class="terminal-101169602-r7" x="158.6" y="288.4" textLength="85.4" clip-path="url(#terminal-101169602-line-11)">&quot;2.1.0&quot;</text><text class="terminal-101169602-r4" x="244" y="288.4" textLength="12.2" clip-path="url(#terminal-101169602-line-11)">,</text><text class="terminal-101169602-r2" x="976" y="288.4" textLength="12.2" clip-path="url(#terminal-101169602-line-11)">
</text><text class="terminal-101169602-r6" x="24.4" y="312.8" textLength="73.2" clip-path="url(#terminal-101169602-line-12)">&quot;runs&quot;</text><text class="terminal-101169602-r4" x="97.6" y="312.8" textLength="12.2" clip-path="url(#terminal-101169602-line-12)">:</text><text class="terminal-101169602-r4" x="122" y="312.8" textLength="12.2" clip-path="url(#terminal-101169602-line-12)">[</text><text class="terminal-101169602-r2" x="976" y="312.8" textLength="12.2" clip-path="url(#terminal-101169602-line-12)">
</text><text class="terminal-101169602-r4" x="48.8" y="337.2" textLength="12.2" clip-path="url(#terminal-101169602-line-13)">{</text><text class="terminal-101169602-r2" x="976" y="337.2" textLength="12.2" clip-path="url(#terminal-101169602-line-13)">
</text><text class="terminal-101169602-r6" x="73.2" y="361.6" textLength="73.2" clip-path="url(#terminal-101169602-line-14)">&quot;tool&quot;</text><text class="terminal-101169602-r4" x="146.4" y="361.6" textLength="12.2" clip-path="url(#terminal-101169602-line-14)">:</text><text class="terminal-101169602-r4" x="170.8" y="361.6" textLength="12.2" clip-path="url(#terminal-101169602-line-14)">{</text><text class="terminal-101169602-r2" x="976" y="361.6" textLength="12.2" clip-path="url(#terminal-101169602-line-14)">
</text><text class="terminal-101169602-r6" x="97.6" y="386" textLength="97.6" clip-path="url(#terminal-101169602-line-15)">&quot;driver&quot;</text><text class="terminal-101169602-r4" x="195.2" y="386" textLength="12.2" clip-path="url(#terminal-101169602-line-15)">:</text><text class="terminal-101169602-r4" x="219.6" y="386" textLength="12.2" clip-path="url(#terminal-101169602-line-15)">{</text><text class="terminal-101169602-r2" x="976" y="386" textLength="12.2" clip-path="url(#terminal-101169602-line-15)">
</text><text class="terminal-101169602-r6" x="122" y="410.4" textLength="73.2" clip-path="url(#terminal-101169602-line-16)">&quot;name&quot;</text><text class="terminal-101169602-r4" x="195.2" y="410.4" textLength="12.2" clip-path="url(#terminal-101169602-line-16)">:</text><text class="terminal-101169602-r7" x="219.6" y="410.4" textLength="97.6" clip-path="url(#terminal-101169602-line-16)">&quot;Zenzic&quot;</text><text class="terminal-101169602-r4" x="317.2" y="410.4" textLength="12.2" clip-path="url(#terminal-101169602-line-16)">,</text><text class="terminal-101169602-r2" x="976" y="410.4" textLength="12.2" clip-path="url(#terminal-101169602-line-16)">
</text><text class="terminal-101169602-r6" x="122" y="434.8" textLength="109.8" clip-path="url(#terminal-101169602-line-17)">&quot;version&quot;</text><text class="terminal-101169602-r4" x="231.8" y="434.8" textLength="12.2" clip-path="url(#terminal-101169602-line-17)">:</text><text class="terminal-101169602-r7" x="256.2" y="434.8" textLength="85.4" clip-path="url(#terminal-101169602-line-17)">&quot;x.y.z&quot;</text><text class="terminal-101169602-r2" x="976" y="434.8" textLength="12.2" clip-path="url(#terminal-101169602-line-17)">
</text><text class="terminal-101169602-r4" x="97.6" y="459.2" textLength="12.2" clip-path="url(#terminal-101169602-line-18)">}</text><text class="terminal-101169602-r2" x="976" y="459.2" textLength="12.2" clip-path="url(#terminal-101169602-line-18)">
</text><text class="terminal-101169602-r4" x="73.2" y="483.6" textLength="24.4" clip-path="url(#terminal-101169602-line-19)">},</text><text class="terminal-101169602-r2" x="976" y="483.6" textLength="12.2" clip-path="url(#terminal-101169602-line-19)">
</text><text class="terminal-101169602-r6" x="73.2" y="508" textLength="109.8" clip-path="url(#terminal-101169602-line-20)">&quot;results&quot;</text><text class="terminal-101169602-r4" x="183" y="508" textLength="12.2" clip-path="url(#terminal-101169602-line-20)">:</text><text class="terminal-101169602-r4" x="207.4" y="508" textLength="12.2" clip-path="url(#terminal-101169602-line-20)">[</text><text class="terminal-101169602-r2" x="976" y="508" textLength="12.2" clip-path="url(#terminal-101169602-line-20)">
</text><text class="terminal-101169602-r4" x="97.6" y="532.4" textLength="12.2" clip-path="url(#terminal-101169602-line-21)">{</text><text class="terminal-101169602-r2" x="976" y="532.4" textLength="12.2" clip-path="url(#terminal-101169602-line-21)">
</text><text class="terminal-101169602-r6" x="122" y="556.8" textLength="97.6" clip-path="url(#terminal-101169602-line-22)">&quot;ruleId&quot;</text><text class="terminal-101169602-r4" x="219.6" y="556.8" textLength="12.2" clip-path="url(#terminal-101169602-line-22)">:</text><text class="terminal-101169602-r7" x="244" y="556.8" textLength="73.2" clip-path="url(#terminal-101169602-line-22)">&quot;Z201&quot;</text><text class="terminal-101169602-r4" x="317.2" y="556.8" textLength="12.2" clip-path="url(#terminal-101169602-line-22)">,</text><text class="terminal-101169602-r2" x="976" y="556.8" textLength="12.2" clip-path="url(#terminal-101169602-line-22)">
</text><text class="terminal-101169602-r6" x="122" y="581.2" textLength="85.4" clip-path="url(#terminal-101169602-line-23)">&quot;level&quot;</text><text class="terminal-101169602-r4" x="207.4" y="581.2" textLength="12.2" clip-path="url(#terminal-101169602-line-23)">:</text><text class="terminal-101169602-r7" x="231.8" y="581.2" textLength="85.4" clip-path="url(#terminal-101169602-line-23)">&quot;error&quot;</text><text class="terminal-101169602-r4" x="317.2" y="581.2" textLength="12.2" clip-path="url(#terminal-101169602-line-23)">,</text><text class="terminal-101169602-r2" x="976" y="581.2" textLength="12.2" clip-path="url(#terminal-101169602-line-23)">
</text><text class="terminal-101169602-r6" x="122" y="605.6" textLength="109.8" clip-path="url(#terminal-101169602-line-24)">&quot;message&quot;</text><text class="terminal-101169602-r4" x="231.8" y="605.6" textLength="12.2" clip-path="url(#terminal-101169602-line-24)">:</text><text class="terminal-101169602-r4" x="256.2" y="605.6" textLength="12.2" clip-path="url(#terminal-101169602-line-24)">{</text><text class="terminal-101169602-r2" x="976" y="605.6" textLength="12.2" clip-path="url(#terminal-101169602-line-24)">
</text><text class="terminal-101169602-r6" x="146.4" y="630" textLength="73.2" clip-path="url(#terminal-101169602-line-25)">&quot;text&quot;</text><text class="terminal-101169602-r4" x="219.6" y="630" textLength="12.2" clip-path="url(#terminal-101169602-line-25)">:</text><text class="terminal-101169602-r7" x="244" y="630" textLength="683.2" clip-path="url(#terminal-101169602-line-25)">&quot;Secret&#160;detected&#160;(aws-access-key)&#160;—&#160;rotate&#160;immediately.&quot;</text><text class="terminal-101169602-r2" x="976" y="630" textLength="12.2" clip-path="url(#terminal-101169602-line-25)">
</text><text class="terminal-101169602-r4" x="122" y="654.4" textLength="24.4" clip-path="url(#terminal-101169602-line-26)">},</text><text class="terminal-101169602-r2" x="976" y="654.4" textLength="12.2" clip-path="url(#terminal-101169602-line-26)">
</text><text class="terminal-101169602-r6" x="122" y="678.8" textLength="134.2" clip-path="url(#terminal-101169602-line-27)">&quot;locations&quot;</text><text class="terminal-101169602-r4" x="256.2" y="678.8" textLength="12.2" clip-path="url(#terminal-101169602-line-27)">:</text><text class="terminal-101169602-r4" x="280.6" y="678.8" textLength="12.2" clip-path="url(#terminal-101169602-line-27)">[</text><text class="terminal-101169602-r2" x="976" y="678.8" textLength="12.2" clip-path="url(#terminal-101169602-line-27)">
</text><text class="terminal-101169602-r4" x="146.4" y="703.2" textLength="12.2" clip-path="url(#terminal-101169602-line-28)">{</text><text class="terminal-101169602-r2" x="976" y="703.2" textLength="12.2" clip-path="url(#terminal-101169602-line-28)">
</text><text class="terminal-101169602-r6" x="170.8" y="727.6" textLength="219.6" clip-path="url(#terminal-101169602-line-29)">&quot;physicalLocation&quot;</text><text class="terminal-101169602-r4" x="390.4" y="727.6" textLength="12.2" clip-path="url(#terminal-101169602-line-29)">:</text><text class="terminal-101169602-r4" x="414.8" y="727.6" textLength="12.2" clip-path="url(#terminal-101169602-line-29)">{</text><text class="terminal-101169602-r2" x="976" y="727.6" textLength="12.2" clip-path="url(#terminal-101169602-line-29)">
</text><text class="terminal-101169602-r6" x="195.2" y="752" textLength="219.6" clip-path="url(#terminal-101169602-line-30)">&quot;artifactLocation&quot;</text><text class="terminal-101169602-r4" x="414.8" y="752" textLength="12.2" clip-path="url(#terminal-101169602-line-30)">:</text><text class="terminal-101169602-r4" x="439.2" y="752" textLength="12.2" clip-path="url(#terminal-101169602-line-30)">{</text><text class="terminal-101169602-r6" x="463.6" y="752" textLength="61" clip-path="url(#terminal-101169602-line-30)">&quot;uri&quot;</text><text class="terminal-101169602-r4" x="524.6" y="752" textLength="12.2" clip-path="url(#terminal-101169602-line-30)">:</text><text class="terminal-101169602-r7" x="549" y="752" textLength="183" clip-path="url(#terminal-101169602-line-30)">&quot;docs/setup.md&quot;</text><text class="terminal-101169602-r4" x="744.2" y="752" textLength="24.4" clip-path="url(#terminal-101169602-line-30)">},</text><text class="terminal-101169602-r2" x="976" y="752" textLength="12.2" clip-path="url(#terminal-101169602-line-30)">
</text><text class="terminal-101169602-r6" x="195.2" y="776.4" textLength="97.6" clip-path="url(#terminal-101169602-line-31)">&quot;region&quot;</text><text class="terminal-101169602-r4" x="292.8" y="776.4" textLength="12.2" clip-path="url(#terminal-101169602-line-31)">:</text><text class="terminal-101169602-r4" x="317.2" y="776.4" textLength="12.2" clip-path="url(#terminal-101169602-line-31)">{</text><text class="terminal-101169602-r6" x="341.6" y="776.4" textLength="134.2" clip-path="url(#terminal-101169602-line-31)">&quot;startLine&quot;</text><text class="terminal-101169602-r4" x="475.8" y="776.4" textLength="12.2" clip-path="url(#terminal-101169602-line-31)">:</text><text class="terminal-101169602-r7" x="500.2" y="776.4" textLength="24.4" clip-path="url(#terminal-101169602-line-31)">15</text><text class="terminal-101169602-r4" x="536.8" y="776.4" textLength="12.2" clip-path="url(#terminal-101169602-line-31)">}</text><text class="terminal-101169602-r2" x="976" y="776.4" textLength="12.2" clip-path="url(#terminal-101169602-line-31)">
</text><text class="terminal-101169602-r4" x="170.8" y="800.8" textLength="12.2" clip-path="url(#terminal-101169602-line-32)">}</text><text class="terminal-101169602-r2" x="976" y="800.8" textLength="12.2" clip-path="url(#terminal-101169602-line-32)">
</text><text class="terminal-101169602-r4" x="146.4" y="825.2" textLength="12.2" clip-path="url(#terminal-101169602-line-33)">}</text><text class="terminal-101169602-r2" x="976" y="825.2" textLength="12.2" clip-path="url(#terminal-101169602-line-33)">
</text><text class="terminal-101169602-r4" x="122" y="849.6" textLength="12.2" clip-path="url(#terminal-101169602-line-34)">]</text><text class="terminal-101169602-r2" x="976" y="849.6" textLength="12.2" clip-path="url(#terminal-101169602-line-34)">
</text><text class="terminal-101169602-r4" x="97.6" y="874" textLength="12.2" clip-path="url(#terminal-101169602-line-35)">}</text><text class="terminal-101169602-r2" x="976" y="874" textLength="12.2" clip-path="url(#terminal-101169602-line-35)">
</text><text class="terminal-101169602-r4" x="73.2" y="898.4" textLength="12.2" clip-path="url(#terminal-101169602-line-36)">]</text><text class="terminal-101169602-r2" x="976" y="898.4" textLength="12.2" clip-path="url(#terminal-101169602-line-36)">
</text><text class="terminal-101169602-r4" x="48.8" y="922.8" textLength="12.2" clip-path="url(#terminal-101169602-line-37)">}</text><text class="terminal-101169602-r2" x="976" y="922.8" textLength="12.2" clip-path="url(#terminal-101169602-line-37)">
</text><text class="terminal-101169602-r4" x="24.4" y="947.2" textLength="12.2" clip-path="url(#terminal-101169602-line-38)">]</text><text class="terminal-101169602-r2" x="976" y="947.2" textLength="12.2" clip-path="url(#terminal-101169602-line-38)">
</text><text class="terminal-101169602-r4" x="0" y="971.6" textLength="12.2" clip-path="url(#terminal-101169602-line-39)">}</text><text class="terminal-101169602-r2" x="976" y="971.6" textLength="12.2" clip-path="url(#terminal-101169602-line-39)">
</text><text class="terminal-101169602-r2" x="976" y="996" textLength="12.2" clip-path="url(#terminal-101169602-line-40)">
</text><text class="terminal-101169602-r8" x="0" y="1020.4" textLength="256.2" clip-path="url(#terminal-101169602-line-41)">::group::SARIF&#160;Upload</text><text class="terminal-101169602-r2" x="976" y="1020.4" textLength="12.2" clip-path="url(#terminal-101169602-line-41)">
</text><text class="terminal-101169602-r3" x="0" y="1044.8" textLength="536.8" clip-path="url(#terminal-101169602-line-42)">Uploading&#160;results&#160;to&#160;GitHub&#160;Code&#160;Scanning...</text><text class="terminal-101169602-r2" x="976" y="1044.8" textLength="12.2" clip-path="url(#terminal-101169602-line-42)">
</text><text class="terminal-101169602-r9" x="0" y="1069.2" textLength="646.6" clip-path="url(#terminal-101169602-line-43)">Payload&#160;accepted.&#160;Findings&#160;available&#160;in&#160;Security&#160;tab.</text><text class="terminal-101169602-r2" x="976" y="1069.2" textLength="12.2" clip-path="url(#terminal-101169602-line-43)">
</text><text class="terminal-101169602-r8" x="0" y="1093.6" textLength="146.4" clip-path="url(#terminal-101169602-line-44)">::endgroup::</text><text class="terminal-101169602-r2" x="976" y="1093.6" textLength="12.2" clip-path="url(#terminal-101169602-line-44)">
</text>
    </g>
    </g>
</svg>
